<svg width="87" height="99" viewBox="0 0 87 99" fill="none" xmlns="http://www.w3.org/2000/svg">
<path d="M8.632 74V38.096C8.632 31.568 12.856 26.672 18.712 26.672C24.472 26.672 28.6 31.472 28.6 38.096V74H36.664V38.768C36.664 30.032 30.52 23.792 21.784 23.792C15.64 23.792 10.84 27.152 8.632 32.24V0.0799961H0.472V74H8.632ZM65.0155 98.768C77.2075 98.768 86.4235 90.032 86.4235 78.416C86.4235 67.184 77.5915 58.64 65.6875 58.352V55.376C74.8075 55.088 81.5275 48.464 81.5275 39.632C81.5275 31.664 76.0555 25.424 68.2795 24.08H86.2315V16.016L65.0155 23.792C55.7035 23.792 48.5995 30.608 48.5995 39.632C48.5995 48.464 55.3195 55.088 64.3435 55.376V58.352C52.5355 58.64 43.7995 67.184 43.7995 78.416C43.7995 90.032 52.8235 98.768 65.0155 98.768ZM65.0155 54.128C59.9275 54.128 56.1835 48.944 56.1835 39.632C56.1835 30.32 59.9275 25.04 65.0155 25.04C70.1035 25.04 73.9435 30.32 73.9435 39.632C73.9435 48.944 70.1035 54.128 65.0155 54.128ZM65.0155 97.424C57.7195 97.424 52.1515 89.936 52.1515 78.416C52.1515 67.184 57.7195 59.696 65.0155 59.696C72.5995 59.696 78.0715 67.184 78.0715 78.416C78.0715 89.936 72.5995 97.424 65.0155 97.424Z" fill="#FFFFFF"/>
</svg>
