<svg width="341" height="392" viewBox="0 0 341 392" fill="none" xmlns="http://www.w3.org/2000/svg">
<path d="M32.96 293V150.88C32.96 125.04 49.68 105.66 72.86 105.66C95.66 105.66 112 124.66 112 150.88V293H143.92V153.54C143.92 118.96 119.6 94.26 85.02 94.26C60.7 94.26 41.7 107.56 32.96 127.7V0.399985H0.660001V293H32.96ZM256.145 391.04C304.405 391.04 340.885 356.46 340.885 310.48C340.885 266.02 305.925 232.2 258.805 231.06V219.28C294.905 218.14 321.505 191.92 321.505 156.96C321.505 125.42 299.845 100.72 269.065 95.4H340.125V63.48L256.145 94.26C219.285 94.26 191.165 121.24 191.165 156.96C191.165 191.92 217.765 218.14 253.485 219.28V231.06C206.745 232.2 172.165 266.02 172.165 310.48C172.165 356.46 207.885 391.04 256.145 391.04ZM256.145 214.34C236.005 214.34 221.185 193.82 221.185 156.96C221.185 120.1 236.005 99.2 256.145 99.2C276.285 99.2 291.485 120.1 291.485 156.96C291.485 193.82 276.285 214.34 256.145 214.34ZM256.145 385.72C227.265 385.72 205.225 356.08 205.225 310.48C205.225 266.02 227.265 236.38 256.145 236.38C286.165 236.38 307.825 266.02 307.825 310.48C307.825 356.08 286.165 385.72 256.145 385.72Z" fill="#D8D8D8"/>
</svg>
